<svg xmlns="http://www.w3.org/2000/svg" width="222" height="47" viewBox="0 0 222 47" fill="none">
  <g clip-path="url(#clip0_105_85)">
    <path fill-rule="evenodd" clip-rule="evenodd" d="M84.3337 35.8667C85.9269 37.5483 87.8513 38.8814 89.9855 39.7821C92.1197 40.6827 94.4174 41.1313 96.7337 41.0995C98.5252 41.1078 100.309 40.8572 102.028 40.3555C103.738 39.852 105.358 39.082 106.827 38.0739L105.761 44.8443C104.406 45.3963 103.009 45.8359 101.582 46.1587C99.9511 46.4988 98.288 46.6609 96.6221 46.6423C93.5816 46.6913 90.5634 46.1156 87.7544 44.9511C84.9453 43.7865 82.4052 42.0578 80.2913 39.8719C78.1171 37.7529 76.4009 35.2102 75.2492 32.4011C74.0974 29.5921 73.5345 26.5765 73.5953 23.5411C73.5462 20.5073 74.1144 17.4952 75.2655 14.6878C76.4166 11.8804 78.1265 9.33636 80.2913 7.21029C82.3995 5.03055 84.9315 3.3054 87.7316 2.14103C90.5316 0.976667 93.5403 0.39774 96.5725 0.439891C97.8535 0.486753 99.1297 0.623492 100.392 0.849093C101.385 0.971838 102.365 1.18773 103.318 1.4939L104.459 7.7807C103.411 7.21132 102.288 6.7938 101.123 6.5407C99.6519 6.22516 98.1517 6.06309 96.6469 6.0571C94.3376 6.01031 92.0436 6.44228 89.9095 7.32581C87.7753 8.20934 85.8473 9.52527 84.2469 11.1907C82.5747 12.8107 81.2504 14.7546 80.355 16.9037C79.4595 19.0528 79.0117 21.3619 79.0389 23.6899C79.0745 25.9685 79.5607 28.2175 80.4695 30.3074C81.3782 32.3973 82.6915 34.2866 84.3337 35.8667Z" fill="#085EA7"/>
    <path fill-rule="evenodd" clip-rule="evenodd" d="M113.126 6.4787L113.213 1.2583H140.716V6.3919H129.73V42.5627L124.2 46.1587V6.4787H113.126Z" fill="#085EA7"/>
    <path fill-rule="evenodd" clip-rule="evenodd" d="M182.368 46.072L176.838 42.972V13.7452L147.078 46.072V0.687988L152.608 3.04399V32.3576L182.368 0.687988V46.072Z" fill="#085EA7"/>
    <path fill-rule="evenodd" clip-rule="evenodd" d="M199.331 35.8667C200.924 37.5483 202.849 38.8814 204.983 39.7821C207.117 40.6827 209.415 41.1313 211.731 41.0995C213.523 41.1124 215.307 40.8617 217.026 40.3555C218.736 39.852 220.355 39.082 221.825 38.0739L220.758 44.8443C219.416 45.3944 218.031 45.834 216.617 46.1587C214.986 46.4988 213.323 46.6609 211.657 46.6423C208.625 46.6844 205.616 46.1055 202.816 44.9412C200.016 43.7768 197.484 42.0516 195.376 39.8719C193.192 37.7572 191.467 35.2163 190.307 32.4071C189.146 29.5978 188.576 26.5801 188.63 23.5411C188.587 20.5037 189.163 17.4895 190.323 14.6819C191.483 11.8743 193.202 9.33215 195.376 7.21029C197.484 5.03055 200.016 3.3054 202.816 2.14103C205.616 0.976667 208.625 0.39774 211.657 0.439891C212.938 0.486753 214.214 0.623492 215.476 0.849093C216.47 0.971838 217.449 1.18773 218.402 1.4939L219.543 7.7807C218.496 7.21132 217.373 6.7938 216.208 6.5407C214.736 6.22516 213.236 6.06309 211.731 6.0571C209.422 6.01031 207.128 6.44228 204.994 7.32581C202.86 8.20934 200.932 9.52527 199.331 11.1907C197.645 12.8002 196.312 14.7422 195.416 16.8937C194.519 19.0453 194.079 21.3595 194.123 23.6899C194.148 25.9624 194.62 28.2077 195.514 30.2973C196.408 32.3868 197.705 34.2794 199.331 35.8667Z" fill="#085EA7"/>
    <path d="M84.3337 35.8667C85.9269 37.5483 87.8513 38.8814 89.9855 39.7821C92.1197 40.6827 94.4174 41.1313 96.7337 41.0995C98.5252 41.1078 100.309 40.8572 102.028 40.3555C103.738 39.852 105.358 39.082 106.827 38.0739L105.761 44.8443C104.406 45.3963 103.009 45.8359 101.582 46.1587C99.9511 46.4988 98.288 46.6609 96.6221 46.6423C93.5816 46.6913 90.5634 46.1156 87.7544 44.9511C84.9453 43.7865 82.4052 42.0578 80.2913 39.8719C78.1171 37.7529 76.4009 35.2102 75.2492 32.4011C74.0974 29.5921 73.5345 26.5765 73.5953 23.5411C73.5462 20.5073 74.1144 17.4952 75.2655 14.6878C76.4166 11.8804 78.1265 9.33636 80.2913 7.21029C82.3995 5.03055 84.9315 3.3054 87.7316 2.14103C90.5316 0.976667 93.5403 0.39774 96.5725 0.439891C97.8535 0.486753 99.1297 0.623492 100.392 0.849093C101.385 0.971838 102.365 1.18773 103.318 1.4939L104.459 7.7807C103.411 7.21132 102.288 6.7938 101.123 6.5407C99.6519 6.22516 98.1517 6.06309 96.6469 6.0571C94.3376 6.01031 92.0436 6.44228 89.9095 7.32581C87.7753 8.20934 85.8473 9.52527 84.2469 11.1907C82.5747 12.8107 81.2504 14.7546 80.355 16.9037C79.4595 19.0528 79.0117 21.3619 79.0389 23.6899C79.0745 25.9685 79.5607 28.2175 80.4695 30.3074C81.3782 32.3973 82.6915 34.2866 84.3337 35.8667Z" fill="#085EA7"/>
    <path d="M84.3337 35.8667C85.9269 37.5483 87.8513 38.8814 89.9855 39.7821C92.1197 40.6827 94.4174 41.1313 96.7337 41.0995C98.5252 41.1078 100.309 40.8572 102.028 40.3555C103.738 39.852 105.358 39.082 106.827 38.0739L105.761 44.8443C104.406 45.3963 103.009 45.8359 101.582 46.1587C99.9511 46.4988 98.288 46.6609 96.6221 46.6423C93.5816 46.6913 90.5634 46.1156 87.7544 44.9511C84.9453 43.7865 82.4052 42.0578 80.2913 39.8719C78.1171 37.7529 76.4009 35.2102 75.2492 32.4011C74.0974 29.5921 73.5345 26.5765 73.5953 23.5411C73.5462 20.5073 74.1144 17.4952 75.2655 14.6878C76.4166 11.8804 78.1265 9.33636 80.2913 7.21029C82.3995 5.03055 84.9315 3.3054 87.7316 2.14103C90.5316 0.976667 93.5403 0.39774 96.5725 0.439891C97.8535 0.486753 99.1297 0.623492 100.392 0.849093C101.385 0.971838 102.365 1.18773 103.318 1.4939L104.459 7.7807C103.411 7.21132 102.288 6.7938 101.123 6.5407C99.6519 6.22516 98.1517 6.06309 96.6469 6.0571C94.3376 6.01031 92.0436 6.44228 89.9095 7.32581C87.7753 8.20934 85.8473 9.52527 84.2469 11.1907C82.5747 12.8107 81.2504 14.7546 80.355 16.9037C79.4595 19.0528 79.0117 21.3619 79.0389 23.6899C79.0745 25.9685 79.5607 28.2175 80.4695 30.3074C81.3782 32.3973 82.6915 34.2866 84.3337 35.8667Z" fill="#085EA7"/>
    <path d="M84.3337 35.8667C85.9269 37.5483 87.8513 38.8814 89.9855 39.7821C92.1197 40.6827 94.4174 41.1313 96.7337 41.0995C98.5252 41.1078 100.309 40.8572 102.028 40.3555C103.738 39.852 105.358 39.082 106.827 38.0739L105.761 44.8443C104.406 45.3963 103.009 45.8359 101.582 46.1587C99.9511 46.4988 98.288 46.6609 96.6221 46.6423C93.5816 46.6913 90.5634 46.1156 87.7544 44.9511C84.9453 43.7865 82.4052 42.0578 80.2913 39.8719C78.1171 37.7529 76.4009 35.2102 75.2492 32.4011C74.0974 29.5921 73.5345 26.5765 73.5953 23.5411C73.5462 20.5073 74.1144 17.4952 75.2655 14.6878C76.4166 11.8804 78.1265 9.33636 80.2913 7.21029C82.3995 5.03055 84.9315 3.3054 87.7316 2.14103C90.5316 0.976667 93.5403 0.39774 96.5725 0.439891C97.8535 0.486753 99.1297 0.623492 100.392 0.849093C101.385 0.971838 102.365 1.18773 103.318 1.4939L104.459 7.7807C103.411 7.21132 102.288 6.7938 101.123 6.5407C99.6519 6.22516 98.1517 6.06309 96.6469 6.0571C94.3376 6.01031 92.0436 6.44228 89.9095 7.32581C87.7753 8.20934 85.8473 9.52527 84.2469 11.1907C82.5747 12.8107 81.2504 14.7546 80.355 16.9037C79.4595 19.0528 79.0117 21.3619 79.0389 23.6899C79.0745 25.9685 79.5607 28.2175 80.4695 30.3074C81.3782 32.3973 82.6915 34.2866 84.3337 35.8667Z" fill="#085EA7"/>
    <path d="M113.126 6.4787L113.213 1.2583H140.716V6.3919H129.73V42.5627L124.2 46.1587V6.4787H113.126Z" fill="#085EA7"/>
    <path d="M113.126 6.4787L113.213 1.2583H140.716V6.3919H129.73V42.5627L124.2 46.1587V6.4787H113.126Z" fill="#085EA7"/>
    <path d="M113.126 6.4787L113.213 1.2583H140.716V6.3919H129.73V42.5627L124.2 46.1587V6.4787H113.126Z" fill="#085EA7"/>
    <path d="M182.368 46.072L176.838 42.972V13.7452L147.078 46.072V0.687988L152.608 3.04399V32.3576L182.368 0.687988V46.072Z" fill="#085EA7"/>
    <path d="M182.368 46.072L176.838 42.972V13.7452L147.078 46.072V0.687988L152.608 3.04399V32.3576L182.368 0.687988V46.072Z" fill="#085EA7"/>
    <path d="M182.368 46.072L176.838 42.972V13.7452L147.078 46.072V0.687988L152.608 3.04399V32.3576L182.368 0.687988V46.072Z" fill="#085EA7"/>
    <path d="M199.331 35.8667C200.924 37.5483 202.849 38.8814 204.983 39.7821C207.117 40.6827 209.415 41.1313 211.731 41.0995C213.523 41.1124 215.307 40.8617 217.026 40.3555C218.736 39.852 220.355 39.082 221.825 38.0739L220.758 44.8443C219.416 45.3944 218.031 45.834 216.617 46.1587C214.986 46.4988 213.323 46.6609 211.657 46.6423C208.625 46.6844 205.616 46.1055 202.816 44.9412C200.016 43.7768 197.484 42.0516 195.376 39.8719C193.192 37.7572 191.467 35.2163 190.307 32.4071C189.146 29.5978 188.576 26.5801 188.63 23.5411C188.587 20.5037 189.163 17.4895 190.323 14.6819C191.483 11.8743 193.202 9.33215 195.376 7.21029C197.484 5.03055 200.016 3.3054 202.816 2.14103C205.616 0.976667 208.625 0.39774 211.657 0.439891C212.938 0.486753 214.214 0.623492 215.476 0.849093C216.47 0.971838 217.449 1.18773 218.402 1.4939L219.543 7.7807C218.496 7.21132 217.373 6.7938 216.208 6.5407C214.736 6.22516 213.236 6.06309 211.731 6.0571C209.422 6.01031 207.128 6.44228 204.994 7.32581C202.86 8.20934 200.932 9.52527 199.331 11.1907C197.645 12.8002 196.312 14.7422 195.416 16.8937C194.519 19.0453 194.079 21.3595 194.123 23.6899C194.148 25.9624 194.62 28.2077 195.514 30.2973C196.408 32.3868 197.705 34.2794 199.331 35.8667Z" fill="#085EA7"/>
    <path d="M199.331 35.8667C200.924 37.5483 202.849 38.8814 204.983 39.7821C207.117 40.6827 209.415 41.1313 211.731 41.0995C213.523 41.1124 215.307 40.8617 217.026 40.3555C218.736 39.852 220.355 39.082 221.825 38.0739L220.758 44.8443C219.416 45.3944 218.031 45.834 216.617 46.1587C214.986 46.4988 213.323 46.6609 211.657 46.6423C208.625 46.6844 205.616 46.1055 202.816 44.9412C200.016 43.7768 197.484 42.0516 195.376 39.8719C193.192 37.7572 191.467 35.2163 190.307 32.4071C189.146 29.5978 188.576 26.5801 188.63 23.5411C188.587 20.5037 189.163 17.4895 190.323 14.6819C191.483 11.8743 193.202 9.33215 195.376 7.21029C197.484 5.03055 200.016 3.3054 202.816 2.14103C205.616 0.976667 208.625 0.39774 211.657 0.439891C212.938 0.486753 214.214 0.623492 215.476 0.849093C216.47 0.971838 217.449 1.18773 218.402 1.4939L219.543 7.7807C218.496 7.21132 217.373 6.7938 216.208 6.5407C214.736 6.22516 213.236 6.06309 211.731 6.0571C209.422 6.01031 207.128 6.44228 204.994 7.32581C202.86 8.20934 200.932 9.52527 199.331 11.1907C197.645 12.8002 196.312 14.7422 195.416 16.8937C194.519 19.0453 194.079 21.3595 194.123 23.6899C194.148 25.9624 194.62 28.2077 195.514 30.2973C196.408 32.3868 197.705 34.2794 199.331 35.8667Z" fill="#085EA7"/>
    <path d="M199.331 35.8667C200.924 37.5483 202.849 38.8814 204.983 39.7821C207.117 40.6827 209.415 41.1313 211.731 41.0995C213.523 41.1124 215.307 40.8617 217.026 40.3555C218.736 39.852 220.355 39.082 221.825 38.0739L220.758 44.8443C219.416 45.3944 218.031 45.834 216.617 46.1587C214.986 46.4988 213.323 46.6609 211.657 46.6423C208.625 46.6844 205.616 46.1055 202.816 44.9412C200.016 43.7768 197.484 42.0516 195.376 39.8719C193.192 37.7572 191.467 35.2163 190.307 32.4071C189.146 29.5978 188.576 26.5801 188.63 23.5411C188.587 20.5037 189.163 17.4895 190.323 14.6819C191.483 11.8743 193.202 9.33215 195.376 7.21029C197.484 5.03055 200.016 3.3054 202.816 2.14103C205.616 0.976667 208.625 0.39774 211.657 0.439891C212.938 0.486753 214.214 0.623492 215.476 0.849093C216.47 0.971838 217.449 1.18773 218.402 1.4939L219.543 7.7807C218.496 7.21132 217.373 6.7938 216.208 6.5407C214.736 6.22516 213.236 6.06309 211.731 6.0571C209.422 6.01031 207.128 6.44228 204.994 7.32581C202.86 8.20934 200.932 9.52527 199.331 11.1907C197.645 12.8002 196.312 14.7422 195.416 16.8937C194.519 19.0453 194.079 21.3595 194.123 23.6899C194.148 25.9624 194.62 28.2077 195.514 30.2973C196.408 32.3868 197.705 34.2794 199.331 35.8667Z" fill="#085EA7"/>
    <path d="M27.5419 46.8036C31.0538 46.8003 34.5306 46.1052 37.7737 44.7579C41.0169 43.4106 43.9628 41.4375 46.4431 38.9513C48.9235 36.4652 50.8898 33.5147 52.2296 30.2685C53.5693 27.0223 54.2564 23.5438 54.2515 20.032C54.2525 16.4137 53.5176 12.833 52.0915 9.50754C50.6654 6.18212 48.5779 3.18146 45.9559 0.687988C48.4665 4.39413 49.7979 8.77279 49.7751 13.2492C49.7752 19.1495 47.439 24.8099 43.2773 28.9925C39.1156 33.1751 33.467 35.5397 27.5667 35.5692C21.6471 35.5692 15.9699 33.2176 11.7841 29.0318C7.5983 24.846 5.24674 19.1688 5.24674 13.2492C5.22402 8.77279 6.55534 4.39413 9.06594 0.687988C6.46774 3.19572 4.40088 6.20075 2.98847 9.52407C1.57606 12.8474 0.847005 16.421 0.844738 20.032C0.838153 27.1214 3.6464 33.9234 8.65238 38.9433C13.6584 43.9633 20.4525 46.7904 27.5419 46.8036Z" fill="#085EA7"/>
    <path d="M27.8765 28.4391C29.9883 28.4375 32.079 28.0187 34.0285 27.2068C35.9779 26.3949 37.7478 25.2059 39.2365 23.708C40.7251 22.2102 41.9032 20.433 42.703 18.4785C43.5029 16.5241 43.9087 14.4309 43.8973 12.3191C43.914 10.1491 43.482 7.99909 42.6285 6.00395C41.7749 4.00881 40.5183 2.2116 38.9373 0.725098C40.4415 2.94092 41.2372 5.5614 41.2189 8.23949C41.2254 9.99757 40.8854 11.7397 40.2183 13.3663C39.5511 14.9929 38.57 16.4721 37.3308 17.7192C36.0917 18.9664 34.6189 19.9572 32.9967 20.6348C31.3745 21.3125 29.6346 21.6638 27.8765 21.6687C24.3388 21.649 20.9528 20.229 18.4594 17.7193C15.9659 15.2096 14.568 11.8145 14.5713 8.27669C14.5486 5.59979 15.34 2.9792 16.8405 0.762296C15.2655 2.25339 14.0128 4.05148 13.1597 6.04557C12.3066 8.03965 11.8712 10.1874 11.8805 12.3563C11.8902 16.6037 13.5758 20.6757 16.5711 23.6873C19.5664 26.6988 23.6292 28.4064 27.8765 28.4391Z" fill="#085EA7"/>
  </g>
  <defs>
    <clipPath id="clip0_105_85">
      <rect width="220.956" height="46.376" fill="white" transform="translate(0.856934 0.439941)"/>
    </clipPath>
  </defs>
</svg>